<svg width="218" height="252" viewBox="0 0 218 252" fill="none" xmlns="http://www.w3.org/2000/svg">
<path d="M138.215 238.264C140.241 237.501 142.131 236.347 143.787 234.862L143.945 234.652C144.366 234.253 144.759 233.822 145.123 233.364L145.858 232.387C146.206 231.88 146.597 231.407 147.026 230.976L147.183 230.766C147.72 230.192 149.067 228.818 151.055 226.73L151.328 226.504C151.917 225.86 154.105 223.37 157.902 219.156L158.007 219.017C159.711 217.031 161.046 215.534 162.098 214.138L162.15 214.069C164.451 211.015 166.581 207.821 168.527 204.504C169.451 203.002 170.375 201.5 171.236 199.945L171.342 199.805C174.112 194.614 176.043 191.224 176.957 189.599C178.71 186.623 179.309 183.071 178.624 179.724C177.938 176.376 176.024 173.505 173.301 171.742C170.578 169.979 167.268 169.466 164.099 170.317C160.929 171.168 158.157 173.313 156.392 176.281C155.321 178.116 153.243 181.837 150.315 187.238C149.601 188.461 148.835 189.754 148.121 190.977L148.068 191.046C146.998 192.833 145.837 194.558 144.59 196.213C146.882 163.981 142.633 131.866 132.133 102.064C122.229 71.8434 103.049 40.3514 74.5937 7.58747C72.4234 5.10691 69.3854 3.68353 66.1462 3.6296C62.9071 3.57568 59.7312 4.8956 57.3155 7.2998C54.8997 9.70401 53.4413 12.9962 53.2602 16.454C53.0792 19.9118 54.1902 23.253 56.3495 25.7444C82.5892 56.0347 100.163 84.6558 109.072 111.608L109.094 111.853C118.174 137.571 122.027 165.237 120.405 193.07C112.636 182.773 104.24 173.042 95.2664 163.934C94.1093 162.792 92.7434 161.913 91.2471 161.347C89.7507 160.782 88.1531 160.541 86.5458 160.638C84.9384 160.736 83.3528 161.17 81.8796 161.915C80.4065 162.66 79.0746 163.703 77.9604 164.983C76.8461 166.262 75.9712 167.754 75.3858 169.373C74.8004 170.992 74.516 172.706 74.5487 174.417C74.5815 176.128 74.9308 177.803 75.5767 179.345C76.2226 180.887 77.1524 182.267 78.313 183.405C89.5369 195.041 99.9483 207.536 109.47 220.798L109.798 221.188C112.233 224.44 114.477 227.851 116.519 231.403L116.848 231.794C117.462 232.767 117.812 233.404 118.025 233.811C118.568 235.981 119.656 237.932 121.174 239.458C122.692 240.985 124.583 242.032 126.65 242.488C128.716 242.943 130.881 242.792 132.916 242.049C134.952 241.305 136.782 239.998 138.215 238.264Z" fill="#0D4291"/>
<path d="M168.56 204.51L168.568 204.496L168.559 204.514L168.56 204.51Z" fill="#0D4291"/>
</svg>
